<?xml version="1.0" encoding="UTF-8" standalone="no"?>
<!DOCTYPE svg PUBLIC "-//W3C//DTD SVG 1.1//EN" "http://www.w3.org/Graphics/SVG/1.1/DTD/svg11.dtd">
<svg width="100%" height="100%" viewBox="0 0 1280 400" version="1.1" xmlns="http://www.w3.org/2000/svg" xmlns:xlink="http://www.w3.org/1999/xlink" xml:space="preserve" xmlns:serif="http://www.serif.com/" style="fill-rule:evenodd;clip-rule:evenodd;stroke-linejoin:round;stroke-miterlimit:1.41421;">
    <g transform="matrix(1,0,0,1,22.8027,-37.1797)">
        <rect x="-27.292" y="-24.383" width="1353.18" height="476.939" style="fill:rgb(41,33,89);"/>
    </g>
    <g id="Layer1">
        <g transform="matrix(0.770284,0,0,0.770284,117.566,38.1605)">
            <path d="M518.387,152.929L518.741,158.435L521.523,155.208L519.314,158.851L524.659,157.487L519.533,159.525L523.461,161.174L519.314,160.199L522.263,164.861L518.741,160.615L518.387,164.861L518.032,160.615L514.51,164.861L517.459,160.199L513.312,161.174L517.24,159.525L512.114,157.487L517.459,158.851L515.25,155.208L518.032,158.435L518.387,152.929Z" style="fill:rgb(242,242,242);"/>
        </g>
        <g transform="matrix(0.770284,0,0,0.770284,177.566,108.161)">
            <path d="M518.387,152.929L518.741,158.435L521.523,155.208L519.314,158.851L524.659,157.487L519.533,159.525L523.461,161.174L519.314,160.199L522.263,164.861L518.741,160.615L518.387,164.861L518.032,160.615L514.51,164.861L517.459,160.199L513.312,161.174L517.24,159.525L512.114,157.487L517.459,158.851L515.25,155.208L518.032,158.435L518.387,152.929Z" style="fill:rgb(242,242,242);"/>
        </g>
        <g transform="matrix(0.7063,0.307372,-0.307372,0.7063,399.768,9.02987)">
            <path d="M518.387,152.929L518.741,158.435L521.523,155.208L519.314,158.851L524.659,157.487L519.533,159.525L523.461,161.174L519.314,160.199L522.263,164.861L518.741,160.615L518.387,164.861L518.032,160.615L514.51,164.861L517.459,160.199L513.312,161.174L517.24,159.525L512.114,157.487L517.459,158.851L515.25,155.208L518.032,158.435L518.387,152.929Z" style="fill:rgb(242,242,242);"/>
        </g>
        <g transform="matrix(0.524978,0.563681,-0.563681,0.524978,643.07,-13.1995)">
            <path d="M518.387,152.929L518.741,158.435L521.523,155.208L519.314,158.851L524.659,157.487L519.533,159.525L523.461,161.174L519.314,160.199L522.263,164.861L518.741,160.615L518.387,164.861L518.032,160.615L514.51,164.861L517.459,160.199L513.312,161.174L517.24,159.525L512.114,157.487L517.459,158.851L515.25,155.208L518.032,158.435L518.387,152.929Z" style="fill:rgb(242,242,242);"/>
        </g>
        <g transform="matrix(-0.307741,0.70614,-0.70614,-0.307741,1164.27,-106.021)">
            <path d="M518.387,152.929L518.741,158.435L521.523,155.208L519.314,158.851L524.659,157.487L519.533,159.525L523.461,161.174L519.314,160.199L522.263,164.861L518.741,160.615L518.387,164.861L518.032,160.615L514.51,164.861L517.459,160.199L513.312,161.174L517.24,159.525L512.114,157.487L517.459,158.851L515.25,155.208L518.032,158.435L518.387,152.929Z" style="fill:rgb(242,242,242);"/>
        </g>
        <g transform="matrix(0.576552,0.510809,-0.510809,0.576552,684.192,-234.921)">
            <path d="M518.387,152.929L518.741,158.435L521.523,155.208L519.314,158.851L524.659,157.487L519.533,159.525L523.461,161.174L519.314,160.199L522.263,164.861L518.741,160.615L518.387,164.861L518.032,160.615L514.51,164.861L517.459,160.199L513.312,161.174L517.24,159.525L512.114,157.487L517.459,158.851L515.25,155.208L518.032,158.435L518.387,152.929Z" style="fill:rgb(242,242,242);"/>
        </g>
        <g transform="matrix(0.576552,0.510809,-0.510809,0.576552,724.582,-326.16)">
            <path d="M518.387,152.929L518.741,158.435L521.523,155.208L519.314,158.851L524.659,157.487L519.533,159.525L523.461,161.174L519.314,160.199L522.263,164.861L518.741,160.615L518.387,164.861L518.032,160.615L514.51,164.861L517.459,160.199L513.312,161.174L517.24,159.525L512.114,157.487L517.459,158.851L515.25,155.208L518.032,158.435L518.387,152.929Z" style="fill:rgb(242,242,242);"/>
        </g>
        <g transform="matrix(0.576552,0.510809,-0.510809,0.576552,189.77,-340.343)">
            <path d="M518.387,152.929L518.741,158.435L521.523,155.208L519.314,158.851L524.659,157.487L519.533,159.525L523.461,161.174L519.314,160.199L522.263,164.861L518.741,160.615L518.387,164.861L518.032,160.615L514.51,164.861L517.459,160.199L513.312,161.174L517.24,159.525L512.114,157.487L517.459,158.851L515.25,155.208L518.032,158.435L518.387,152.929Z" style="fill:rgb(242,242,242);"/>
        </g>
        <g transform="matrix(-0.307741,0.70614,-0.70614,-0.307741,1444.27,-66.0213)">
            <path d="M518.387,152.929L518.741,158.435L521.523,155.208L519.314,158.851L524.659,157.487L519.533,159.525L523.461,161.174L519.314,160.199L522.263,164.861L518.741,160.615L518.387,164.861L518.032,160.615L514.51,164.861L517.459,160.199L513.312,161.174L517.24,159.525L512.114,157.487L517.459,158.851L515.25,155.208L518.032,158.435L518.387,152.929Z" style="fill:rgb(242,242,242);"/>
        </g>
        <g transform="matrix(-0.611148,0.468867,-0.468867,-0.611148,1449.56,-33.856)">
            <path d="M518.387,152.929L518.741,158.435L521.523,155.208L519.314,158.851L524.659,157.487L519.533,159.525L523.461,161.174L519.314,160.199L522.263,164.861L518.741,160.615L518.387,164.861L518.032,160.615L514.51,164.861L517.459,160.199L513.312,161.174L517.24,159.525L512.114,157.487L517.459,158.851L515.25,155.208L518.032,158.435L518.387,152.929Z" style="fill:rgb(242,242,242);"/>
        </g>
        <g transform="matrix(-0.761747,0.114362,-0.114362,-0.761747,1634.25,187.412)">
            <path d="M518.387,152.929L518.741,158.435L521.523,155.208L519.314,158.851L524.659,157.487L519.533,159.525L523.461,161.174L519.314,160.199L522.263,164.861L518.741,160.615L518.387,164.861L518.032,160.615L514.51,164.861L517.459,160.199L513.312,161.174L517.24,159.525L512.114,157.487L517.459,158.851L515.25,155.208L518.032,158.435L518.387,152.929Z" style="fill:rgb(242,242,242);"/>
        </g>
        <g transform="matrix(-0.440679,0.631775,-0.631775,-0.440679,1378.08,53.6362)">
            <path d="M518.387,152.929L518.741,158.435L521.523,155.208L519.314,158.851L524.659,157.487L519.533,159.525L523.461,161.174L519.314,160.199L522.263,164.861L518.741,160.615L518.387,164.861L518.032,160.615L514.51,164.861L517.459,160.199L513.312,161.174L517.24,159.525L512.114,157.487L517.459,158.851L515.25,155.208L518.032,158.435L518.387,152.929Z" style="fill:rgb(242,242,242);"/>
        </g>
        <g transform="matrix(0.580249,-0.506605,0.506605,0.580249,-45.6717,350.269)">
            <path d="M518.387,152.929L518.741,158.435L521.523,155.208L519.314,158.851L524.659,157.487L519.533,159.525L523.461,161.174L519.314,160.199L522.263,164.861L518.741,160.615L518.387,164.861L518.032,160.615L514.51,164.861L517.459,160.199L513.312,161.174L517.24,159.525L512.114,157.487L517.459,158.851L515.25,155.208L518.032,158.435L518.387,152.929Z" style="fill:rgb(242,242,242);"/>
        </g>
        <g transform="matrix(0.262034,-0.724345,0.724345,0.262034,174.552,653.906)">
            <path d="M518.387,152.929L518.741,158.435L521.523,155.208L519.314,158.851L524.659,157.487L519.533,159.525L523.461,161.174L519.314,160.199L522.263,164.861L518.741,160.615L518.387,164.861L518.032,160.615L514.51,164.861L517.459,160.199L513.312,161.174L517.24,159.525L512.114,157.487L517.459,158.851L515.25,155.208L518.032,158.435L518.387,152.929Z" style="fill:rgb(242,242,242);"/>
        </g>
        <g transform="matrix(0.770284,0,0,0.770284,191.064,-26.6637)">
            <path d="M518.387,152.929L518.741,158.435L521.523,155.208L519.314,158.851L524.659,157.487L519.533,159.525L523.461,161.174L519.314,160.199L522.263,164.861L518.741,160.615L518.387,164.861L518.032,160.615L514.51,164.861L517.459,160.199L513.312,161.174L517.24,159.525L512.114,157.487L517.459,158.851L515.25,155.208L518.032,158.435L518.387,152.929Z" style="fill:rgb(242,242,242);"/>
        </g>
        <g transform="matrix(0.770284,0,0,0.770284,-205.572,-35.8545)">
            <path d="M518.387,152.929L518.741,158.435L521.523,155.208L519.314,158.851L524.659,157.487L519.533,159.525L523.461,161.174L519.314,160.199L522.263,164.861L518.741,160.615L518.387,164.861L518.032,160.615L514.51,164.861L517.459,160.199L513.312,161.174L517.24,159.525L512.114,157.487L517.459,158.851L515.25,155.208L518.032,158.435L518.387,152.929Z" style="fill:rgb(242,242,242);"/>
        </g>
        <g transform="matrix(1.15216,0,0,1.15216,-541.013,-49.292)">
            <path d="M518.387,152.929L518.741,158.435L521.523,155.208L519.314,158.851L524.659,157.487L519.533,159.525L523.461,161.174L519.314,160.199L522.263,164.861L518.741,160.615L518.387,164.861L518.032,160.615L514.51,164.861L517.459,160.199L513.312,161.174L517.24,159.525L512.114,157.487L517.459,158.851L515.25,155.208L518.032,158.435L518.387,152.929Z" style="fill:rgb(242,242,242);"/>
        </g>
        <g transform="matrix(0.859404,0.390182,-0.390182,0.859404,-248.012,-62.9057)">
            <path d="M518.387,152.929L518.741,158.435L521.523,155.208L519.314,158.851L524.659,157.487L519.533,159.525L523.461,161.174L519.314,160.199L522.263,164.861L518.741,160.615L518.387,164.861L518.032,160.615L514.51,164.861L517.459,160.199L513.312,161.174L517.24,159.525L512.114,157.487L517.459,158.851L515.25,155.208L518.032,158.435L518.387,152.929Z" style="fill:rgb(242,242,242);"/>
        </g>
        <g transform="matrix(0.859404,0.390182,-0.390182,0.859404,-142.168,33.8079)">
            <path d="M518.387,152.929L518.741,158.435L521.523,155.208L519.314,158.851L524.659,157.487L519.533,159.525L523.461,161.174L519.314,160.199L522.263,164.861L518.741,160.615L518.387,164.861L518.032,160.615L514.51,164.861L517.459,160.199L513.312,161.174L517.24,159.525L512.114,157.487L517.459,158.851L515.25,155.208L518.032,158.435L518.387,152.929Z" style="fill:rgb(242,242,242);"/>
        </g>
        <g transform="matrix(0.770284,0,0,0.770284,377.166,39.108)">
            <path d="M518.387,152.929L518.741,158.435L521.523,155.208L519.314,158.851L524.659,157.487L519.533,159.525L523.461,161.174L519.314,160.199L522.263,164.861L518.741,160.615L518.387,164.861L518.032,160.615L514.51,164.861L517.459,160.199L513.312,161.174L517.24,159.525L512.114,157.487L517.459,158.851L515.25,155.208L518.032,158.435L518.387,152.929Z" style="fill:rgb(242,242,242);"/>
        </g>
        <g transform="matrix(0.770284,0,0,0.770284,347.166,-40.892)">
            <path d="M518.387,152.929L518.741,158.435L521.523,155.208L519.314,158.851L524.659,157.487L519.533,159.525L523.461,161.174L519.314,160.199L522.263,164.861L518.741,160.615L518.387,164.861L518.032,160.615L514.51,164.861L517.459,160.199L513.312,161.174L517.24,159.525L512.114,157.487L517.459,158.851L515.25,155.208L518.032,158.435L518.387,152.929Z" style="fill:rgb(242,242,242);"/>
        </g>
    </g>
    <g id="Layer11" serif:id="Layer1" transform="matrix(-0.503008,0.399532,-0.523476,-0.659053,609.928,82.8588)">
        <g transform="matrix(0.770284,0,0,0.770284,117.566,38.1605)">
            <path d="M518.387,152.929L518.741,158.435L521.523,155.208L519.314,158.851L524.659,157.487L519.533,159.525L523.461,161.174L519.314,160.199L522.263,164.861L518.741,160.615L518.387,164.861L518.032,160.615L514.51,164.861L517.459,160.199L513.312,161.174L517.24,159.525L512.114,157.487L517.459,158.851L515.25,155.208L518.032,158.435L518.387,152.929Z" style="fill:rgb(242,242,242);fill-opacity:0.568627;"/>
        </g>
        <g transform="matrix(0.770284,0,0,0.770284,177.566,108.161)">
            <path d="M518.387,152.929L518.741,158.435L521.523,155.208L519.314,158.851L524.659,157.487L519.533,159.525L523.461,161.174L519.314,160.199L522.263,164.861L518.741,160.615L518.387,164.861L518.032,160.615L514.51,164.861L517.459,160.199L513.312,161.174L517.24,159.525L512.114,157.487L517.459,158.851L515.25,155.208L518.032,158.435L518.387,152.929Z" style="fill:rgb(242,242,242);fill-opacity:0.568627;"/>
        </g>
        <g transform="matrix(0.7063,0.307372,-0.307372,0.7063,399.768,9.02987)">
            <path d="M518.387,152.929L518.741,158.435L521.523,155.208L519.314,158.851L524.659,157.487L519.533,159.525L523.461,161.174L519.314,160.199L522.263,164.861L518.741,160.615L518.387,164.861L518.032,160.615L514.51,164.861L517.459,160.199L513.312,161.174L517.24,159.525L512.114,157.487L517.459,158.851L515.25,155.208L518.032,158.435L518.387,152.929Z" style="fill:rgb(242,242,242);fill-opacity:0.568627;"/>
        </g>
        <g transform="matrix(0.524978,0.563681,-0.563681,0.524978,643.07,-13.1995)">
            <path d="M518.387,152.929L518.741,158.435L521.523,155.208L519.314,158.851L524.659,157.487L519.533,159.525L523.461,161.174L519.314,160.199L522.263,164.861L518.741,160.615L518.387,164.861L518.032,160.615L514.51,164.861L517.459,160.199L513.312,161.174L517.24,159.525L512.114,157.487L517.459,158.851L515.25,155.208L518.032,158.435L518.387,152.929Z" style="fill:rgb(242,242,242);fill-opacity:0.568627;"/>
        </g>
        <g transform="matrix(-0.307741,0.70614,-0.70614,-0.307741,1164.27,-106.021)">
            <path d="M518.387,152.929L518.741,158.435L521.523,155.208L519.314,158.851L524.659,157.487L519.533,159.525L523.461,161.174L519.314,160.199L522.263,164.861L518.741,160.615L518.387,164.861L518.032,160.615L514.51,164.861L517.459,160.199L513.312,161.174L517.24,159.525L512.114,157.487L517.459,158.851L515.25,155.208L518.032,158.435L518.387,152.929Z" style="fill:rgb(242,242,242);fill-opacity:0.568627;"/>
        </g>
        <g transform="matrix(0.576552,0.510809,-0.510809,0.576552,684.192,-234.921)">
            <path d="M518.387,152.929L518.741,158.435L521.523,155.208L519.314,158.851L524.659,157.487L519.533,159.525L523.461,161.174L519.314,160.199L522.263,164.861L518.741,160.615L518.387,164.861L518.032,160.615L514.51,164.861L517.459,160.199L513.312,161.174L517.24,159.525L512.114,157.487L517.459,158.851L515.25,155.208L518.032,158.435L518.387,152.929Z" style="fill:rgb(242,242,242);fill-opacity:0.568627;"/>
        </g>
        <g transform="matrix(0.576552,0.510809,-0.510809,0.576552,189.77,-340.343)">
            <path d="M518.387,152.929L518.741,158.435L521.523,155.208L519.314,158.851L524.659,157.487L519.533,159.525L523.461,161.174L519.314,160.199L522.263,164.861L518.741,160.615L518.387,164.861L518.032,160.615L514.51,164.861L517.459,160.199L513.312,161.174L517.24,159.525L512.114,157.487L517.459,158.851L515.25,155.208L518.032,158.435L518.387,152.929Z" style="fill:rgb(242,242,242);fill-opacity:0.568627;"/>
        </g>
        <g transform="matrix(0.580249,-0.506605,0.506605,0.580249,-45.6717,350.269)">
            <path d="M518.387,152.929L518.741,158.435L521.523,155.208L519.314,158.851L524.659,157.487L519.533,159.525L523.461,161.174L519.314,160.199L522.263,164.861L518.741,160.615L518.387,164.861L518.032,160.615L514.51,164.861L517.459,160.199L513.312,161.174L517.24,159.525L512.114,157.487L517.459,158.851L515.25,155.208L518.032,158.435L518.387,152.929Z" style="fill:rgb(242,242,242);fill-opacity:0.568627;"/>
        </g>
        <g transform="matrix(0.262034,-0.724345,0.724345,0.262034,174.552,653.906)">
            <path d="M518.387,152.929L518.741,158.435L521.523,155.208L519.314,158.851L524.659,157.487L519.533,159.525L523.461,161.174L519.314,160.199L522.263,164.861L518.741,160.615L518.387,164.861L518.032,160.615L514.51,164.861L517.459,160.199L513.312,161.174L517.24,159.525L512.114,157.487L517.459,158.851L515.25,155.208L518.032,158.435L518.387,152.929Z" style="fill:rgb(242,242,242);fill-opacity:0.568627;"/>
        </g>
        <g transform="matrix(0.770284,0,0,0.770284,191.064,-26.6637)">
            <path d="M518.387,152.929L518.741,158.435L521.523,155.208L519.314,158.851L524.659,157.487L519.533,159.525L523.461,161.174L519.314,160.199L522.263,164.861L518.741,160.615L518.387,164.861L518.032,160.615L514.51,164.861L517.459,160.199L513.312,161.174L517.24,159.525L512.114,157.487L517.459,158.851L515.25,155.208L518.032,158.435L518.387,152.929Z" style="fill:rgb(242,242,242);fill-opacity:0.568627;"/>
        </g>
        <g transform="matrix(0.770284,0,0,0.770284,-205.572,-35.8545)">
            <path d="M518.387,152.929L518.741,158.435L521.523,155.208L519.314,158.851L524.659,157.487L519.533,159.525L523.461,161.174L519.314,160.199L522.263,164.861L518.741,160.615L518.387,164.861L518.032,160.615L514.51,164.861L517.459,160.199L513.312,161.174L517.24,159.525L512.114,157.487L517.459,158.851L515.25,155.208L518.032,158.435L518.387,152.929Z" style="fill:rgb(242,242,242);fill-opacity:0.568627;"/>
        </g>
        <g transform="matrix(1.15216,0,0,1.15216,-541.013,-49.292)">
            <path d="M518.387,152.929L518.741,158.435L521.523,155.208L519.314,158.851L524.659,157.487L519.533,159.525L523.461,161.174L519.314,160.199L522.263,164.861L518.741,160.615L518.387,164.861L518.032,160.615L514.51,164.861L517.459,160.199L513.312,161.174L517.24,159.525L512.114,157.487L517.459,158.851L515.25,155.208L518.032,158.435L518.387,152.929Z" style="fill:rgb(242,242,242);fill-opacity:0.568627;"/>
        </g>
        <g transform="matrix(0.770284,0,0,0.770284,377.166,39.108)">
            <path d="M518.387,152.929L518.741,158.435L521.523,155.208L519.314,158.851L524.659,157.487L519.533,159.525L523.461,161.174L519.314,160.199L522.263,164.861L518.741,160.615L518.387,164.861L518.032,160.615L514.51,164.861L517.459,160.199L513.312,161.174L517.24,159.525L512.114,157.487L517.459,158.851L515.25,155.208L518.032,158.435L518.387,152.929Z" style="fill:rgb(242,242,242);fill-opacity:0.568627;"/>
        </g>
        <g transform="matrix(0.770284,0,0,0.770284,347.166,-40.892)">
            <path d="M518.387,152.929L518.741,158.435L521.523,155.208L519.314,158.851L524.659,157.487L519.533,159.525L523.461,161.174L519.314,160.199L522.263,164.861L518.741,160.615L518.387,164.861L518.032,160.615L514.51,164.861L517.459,160.199L513.312,161.174L517.24,159.525L512.114,157.487L517.459,158.851L515.25,155.208L518.032,158.435L518.387,152.929Z" style="fill:rgb(242,242,242);fill-opacity:0.568627;"/>
        </g>
    </g>
    <g id="Layer12" serif:id="Layer1" transform="matrix(0.28796,0.574215,-0.752349,0.377292,550.285,-263.013)">
        <g transform="matrix(0.770284,0,0,0.770284,117.566,38.1605)">
            <path d="M518.387,152.929L518.741,158.435L521.523,155.208L519.314,158.851L524.659,157.487L519.533,159.525L523.461,161.174L519.314,160.199L522.263,164.861L518.741,160.615L518.387,164.861L518.032,160.615L514.51,164.861L517.459,160.199L513.312,161.174L517.24,159.525L512.114,157.487L517.459,158.851L515.25,155.208L518.032,158.435L518.387,152.929Z" style="fill:rgb(242,242,242);fill-opacity:0.568627;"/>
        </g>
        <g transform="matrix(0.770284,0,0,0.770284,177.566,108.161)">
            <path d="M518.387,152.929L518.741,158.435L521.523,155.208L519.314,158.851L524.659,157.487L519.533,159.525L523.461,161.174L519.314,160.199L522.263,164.861L518.741,160.615L518.387,164.861L518.032,160.615L514.51,164.861L517.459,160.199L513.312,161.174L517.24,159.525L512.114,157.487L517.459,158.851L515.25,155.208L518.032,158.435L518.387,152.929Z" style="fill:rgb(242,242,242);fill-opacity:0.568627;"/>
        </g>
        <g transform="matrix(0.7063,0.307372,-0.307372,0.7063,399.768,9.02987)">
            <path d="M518.387,152.929L518.741,158.435L521.523,155.208L519.314,158.851L524.659,157.487L519.533,159.525L523.461,161.174L519.314,160.199L522.263,164.861L518.741,160.615L518.387,164.861L518.032,160.615L514.51,164.861L517.459,160.199L513.312,161.174L517.24,159.525L512.114,157.487L517.459,158.851L515.25,155.208L518.032,158.435L518.387,152.929Z" style="fill:rgb(242,242,242);fill-opacity:0.568627;"/>
        </g>
        <g transform="matrix(0.524978,0.563681,-0.563681,0.524978,643.07,-13.1995)">
            <path d="M518.387,152.929L518.741,158.435L521.523,155.208L519.314,158.851L524.659,157.487L519.533,159.525L523.461,161.174L519.314,160.199L522.263,164.861L518.741,160.615L518.387,164.861L518.032,160.615L514.51,164.861L517.459,160.199L513.312,161.174L517.24,159.525L512.114,157.487L517.459,158.851L515.25,155.208L518.032,158.435L518.387,152.929Z" style="fill:rgb(242,242,242);fill-opacity:0.568627;"/>
        </g>
        <g transform="matrix(-0.307741,0.70614,-0.70614,-0.307741,1164.27,-106.021)">
            <path d="M518.387,152.929L518.741,158.435L521.523,155.208L519.314,158.851L524.659,157.487L519.533,159.525L523.461,161.174L519.314,160.199L522.263,164.861L518.741,160.615L518.387,164.861L518.032,160.615L514.51,164.861L517.459,160.199L513.312,161.174L517.24,159.525L512.114,157.487L517.459,158.851L515.25,155.208L518.032,158.435L518.387,152.929Z" style="fill:rgb(242,242,242);fill-opacity:0.568627;"/>
        </g>
        <g transform="matrix(0.576552,0.510809,-0.510809,0.576552,684.192,-234.921)">
            <path d="M518.387,152.929L518.741,158.435L521.523,155.208L519.314,158.851L524.659,157.487L519.533,159.525L523.461,161.174L519.314,160.199L522.263,164.861L518.741,160.615L518.387,164.861L518.032,160.615L514.51,164.861L517.459,160.199L513.312,161.174L517.24,159.525L512.114,157.487L517.459,158.851L515.25,155.208L518.032,158.435L518.387,152.929Z" style="fill:rgb(242,242,242);fill-opacity:0.568627;"/>
        </g>
        <g transform="matrix(0.576552,0.510809,-0.510809,0.576552,724.582,-326.16)">
            <path d="M518.387,152.929L518.741,158.435L521.523,155.208L519.314,158.851L524.659,157.487L519.533,159.525L523.461,161.174L519.314,160.199L522.263,164.861L518.741,160.615L518.387,164.861L518.032,160.615L514.51,164.861L517.459,160.199L513.312,161.174L517.24,159.525L512.114,157.487L517.459,158.851L515.25,155.208L518.032,158.435L518.387,152.929Z" style="fill:rgb(242,242,242);fill-opacity:0.568627;"/>
        </g>
        <g transform="matrix(-0.611148,0.468867,-0.468867,-0.611148,1449.56,-33.856)">
            <path d="M518.387,152.929L518.741,158.435L521.523,155.208L519.314,158.851L524.659,157.487L519.533,159.525L523.461,161.174L519.314,160.199L522.263,164.861L518.741,160.615L518.387,164.861L518.032,160.615L514.51,164.861L517.459,160.199L513.312,161.174L517.24,159.525L512.114,157.487L517.459,158.851L515.25,155.208L518.032,158.435L518.387,152.929Z" style="fill:rgb(242,242,242);fill-opacity:0.568627;"/>
        </g>
        <g transform="matrix(0.580249,-0.506605,0.506605,0.580249,-45.6717,350.269)">
            <path d="M518.387,152.929L518.741,158.435L521.523,155.208L519.314,158.851L524.659,157.487L519.533,159.525L523.461,161.174L519.314,160.199L522.263,164.861L518.741,160.615L518.387,164.861L518.032,160.615L514.51,164.861L517.459,160.199L513.312,161.174L517.24,159.525L512.114,157.487L517.459,158.851L515.25,155.208L518.032,158.435L518.387,152.929Z" style="fill:rgb(242,242,242);fill-opacity:0.568627;"/>
        </g>
        <g transform="matrix(0.262034,-0.724345,0.724345,0.262034,174.552,653.906)">
            <path d="M518.387,152.929L518.741,158.435L521.523,155.208L519.314,158.851L524.659,157.487L519.533,159.525L523.461,161.174L519.314,160.199L522.263,164.861L518.741,160.615L518.387,164.861L518.032,160.615L514.51,164.861L517.459,160.199L513.312,161.174L517.24,159.525L512.114,157.487L517.459,158.851L515.25,155.208L518.032,158.435L518.387,152.929Z" style="fill:rgb(242,242,242);fill-opacity:0.568627;"/>
        </g>
        <g transform="matrix(0.770284,0,0,0.770284,191.064,-26.6637)">
            <path d="M518.387,152.929L518.741,158.435L521.523,155.208L519.314,158.851L524.659,157.487L519.533,159.525L523.461,161.174L519.314,160.199L522.263,164.861L518.741,160.615L518.387,164.861L518.032,160.615L514.51,164.861L517.459,160.199L513.312,161.174L517.24,159.525L512.114,157.487L517.459,158.851L515.25,155.208L518.032,158.435L518.387,152.929Z" style="fill:rgb(242,242,242);fill-opacity:0.568627;"/>
        </g>
        <g transform="matrix(0.859404,0.390182,-0.390182,0.859404,-142.168,33.8079)">
            <path d="M518.387,152.929L518.741,158.435L521.523,155.208L519.314,158.851L524.659,157.487L519.533,159.525L523.461,161.174L519.314,160.199L522.263,164.861L518.741,160.615L518.387,164.861L518.032,160.615L514.51,164.861L517.459,160.199L513.312,161.174L517.24,159.525L512.114,157.487L517.459,158.851L515.25,155.208L518.032,158.435L518.387,152.929Z" style="fill:rgb(242,242,242);fill-opacity:0.568627;"/>
        </g>
        <g transform="matrix(0.770284,0,0,0.770284,377.166,39.108)">
            <path d="M518.387,152.929L518.741,158.435L521.523,155.208L519.314,158.851L524.659,157.487L519.533,159.525L523.461,161.174L519.314,160.199L522.263,164.861L518.741,160.615L518.387,164.861L518.032,160.615L514.51,164.861L517.459,160.199L513.312,161.174L517.24,159.525L512.114,157.487L517.459,158.851L515.25,155.208L518.032,158.435L518.387,152.929Z" style="fill:rgb(242,242,242);fill-opacity:0.568627;"/>
        </g>
        <g transform="matrix(0.770284,0,0,0.770284,347.166,-40.892)">
            <path d="M518.387,152.929L518.741,158.435L521.523,155.208L519.314,158.851L524.659,157.487L519.533,159.525L523.461,161.174L519.314,160.199L522.263,164.861L518.741,160.615L518.387,164.861L518.032,160.615L514.51,164.861L517.459,160.199L513.312,161.174L517.24,159.525L512.114,157.487L517.459,158.851L515.25,155.208L518.032,158.435L518.387,152.929Z" style="fill:rgb(242,242,242);fill-opacity:0.568627;"/>
        </g>
    </g>
    <g id="Layer13" serif:id="Layer1" transform="matrix(0.28796,0.574215,-0.752349,0.377292,13.4207,-449.617)">
        <g transform="matrix(0.7063,0.307372,-0.307372,0.7063,399.768,9.02987)">
            <path d="M518.387,152.929L518.741,158.435L521.523,155.208L519.314,158.851L524.659,157.487L519.533,159.525L523.461,161.174L519.314,160.199L522.263,164.861L518.741,160.615L518.387,164.861L518.032,160.615L514.51,164.861L517.459,160.199L513.312,161.174L517.24,159.525L512.114,157.487L517.459,158.851L515.25,155.208L518.032,158.435L518.387,152.929Z" style="fill:rgb(242,242,242);fill-opacity:0.372549;"/>
        </g>
        <g transform="matrix(-0.307741,0.70614,-0.70614,-0.307741,1164.27,-106.021)">
            <path d="M518.387,152.929L518.741,158.435L521.523,155.208L519.314,158.851L524.659,157.487L519.533,159.525L523.461,161.174L519.314,160.199L522.263,164.861L518.741,160.615L518.387,164.861L518.032,160.615L514.51,164.861L517.459,160.199L513.312,161.174L517.24,159.525L512.114,157.487L517.459,158.851L515.25,155.208L518.032,158.435L518.387,152.929Z" style="fill:rgb(242,242,242);fill-opacity:0.372549;"/>
        </g>
        <g transform="matrix(0.576552,0.510809,-0.510809,0.576552,684.192,-234.921)">
            <path d="M518.387,152.929L518.741,158.435L521.523,155.208L519.314,158.851L524.659,157.487L519.533,159.525L523.461,161.174L519.314,160.199L522.263,164.861L518.741,160.615L518.387,164.861L518.032,160.615L514.51,164.861L517.459,160.199L513.312,161.174L517.24,159.525L512.114,157.487L517.459,158.851L515.25,155.208L518.032,158.435L518.387,152.929Z" style="fill:rgb(242,242,242);fill-opacity:0.372549;"/>
        </g>
        <g transform="matrix(0.576552,0.510809,-0.510809,0.576552,724.582,-326.16)">
            <path d="M518.387,152.929L518.741,158.435L521.523,155.208L519.314,158.851L524.659,157.487L519.533,159.525L523.461,161.174L519.314,160.199L522.263,164.861L518.741,160.615L518.387,164.861L518.032,160.615L514.51,164.861L517.459,160.199L513.312,161.174L517.24,159.525L512.114,157.487L517.459,158.851L515.25,155.208L518.032,158.435L518.387,152.929Z" style="fill:rgb(242,242,242);fill-opacity:0.372549;"/>
        </g>
        <g transform="matrix(-0.307741,0.70614,-0.70614,-0.307741,1444.27,-66.0213)">
            <path d="M518.387,152.929L518.741,158.435L521.523,155.208L519.314,158.851L524.659,157.487L519.533,159.525L523.461,161.174L519.314,160.199L522.263,164.861L518.741,160.615L518.387,164.861L518.032,160.615L514.51,164.861L517.459,160.199L513.312,161.174L517.24,159.525L512.114,157.487L517.459,158.851L515.25,155.208L518.032,158.435L518.387,152.929Z" style="fill:rgb(242,242,242);fill-opacity:0.372549;"/>
        </g>
        <g transform="matrix(-0.611148,0.468867,-0.468867,-0.611148,1449.56,-33.856)">
            <path d="M518.387,152.929L518.741,158.435L521.523,155.208L519.314,158.851L524.659,157.487L519.533,159.525L523.461,161.174L519.314,160.199L522.263,164.861L518.741,160.615L518.387,164.861L518.032,160.615L514.51,164.861L517.459,160.199L513.312,161.174L517.24,159.525L512.114,157.487L517.459,158.851L515.25,155.208L518.032,158.435L518.387,152.929Z" style="fill:rgb(242,242,242);fill-opacity:0.372549;"/>
        </g>
        <g transform="matrix(-0.761747,0.114362,-0.114362,-0.761747,1634.25,187.412)">
            <path d="M518.387,152.929L518.741,158.435L521.523,155.208L519.314,158.851L524.659,157.487L519.533,159.525L523.461,161.174L519.314,160.199L522.263,164.861L518.741,160.615L518.387,164.861L518.032,160.615L514.51,164.861L517.459,160.199L513.312,161.174L517.24,159.525L512.114,157.487L517.459,158.851L515.25,155.208L518.032,158.435L518.387,152.929Z" style="fill:rgb(242,242,242);fill-opacity:0.372549;"/>
        </g>
        <g transform="matrix(-0.440679,0.631775,-0.631775,-0.440679,1378.08,53.6362)">
            <path d="M518.387,152.929L518.741,158.435L521.523,155.208L519.314,158.851L524.659,157.487L519.533,159.525L523.461,161.174L519.314,160.199L522.263,164.861L518.741,160.615L518.387,164.861L518.032,160.615L514.51,164.861L517.459,160.199L513.312,161.174L517.24,159.525L512.114,157.487L517.459,158.851L515.25,155.208L518.032,158.435L518.387,152.929Z" style="fill:rgb(242,242,242);fill-opacity:0.372549;"/>
        </g>
        <g transform="matrix(0.770284,0,0,0.770284,377.166,39.108)">
            <path d="M518.387,152.929L518.741,158.435L521.523,155.208L519.314,158.851L524.659,157.487L519.533,159.525L523.461,161.174L519.314,160.199L522.263,164.861L518.741,160.615L518.387,164.861L518.032,160.615L514.51,164.861L517.459,160.199L513.312,161.174L517.24,159.525L512.114,157.487L517.459,158.851L515.25,155.208L518.032,158.435L518.387,152.929Z" style="fill:rgb(242,242,242);fill-opacity:0.372549;"/>
        </g>
        <g transform="matrix(0.770284,0,0,0.770284,347.166,-40.892)">
            <path d="M518.387,152.929L518.741,158.435L521.523,155.208L519.314,158.851L524.659,157.487L519.533,159.525L523.461,161.174L519.314,160.199L522.263,164.861L518.741,160.615L518.387,164.861L518.032,160.615L514.51,164.861L517.459,160.199L513.312,161.174L517.24,159.525L512.114,157.487L517.459,158.851L515.25,155.208L518.032,158.435L518.387,152.929Z" style="fill:rgb(242,242,242);fill-opacity:0.372549;"/>
        </g>
    </g>
    <g id="Layer14" serif:id="Layer1" transform="matrix(0.642348,0.00572919,-0.00750652,0.841619,24.4276,168.742)">
        <g transform="matrix(0.770284,0,0,0.770284,117.566,38.1605)">
            <path d="M518.387,152.929L518.741,158.435L521.523,155.208L519.314,158.851L524.659,157.487L519.533,159.525L523.461,161.174L519.314,160.199L522.263,164.861L518.741,160.615L518.387,164.861L518.032,160.615L514.51,164.861L517.459,160.199L513.312,161.174L517.24,159.525L512.114,157.487L517.459,158.851L515.25,155.208L518.032,158.435L518.387,152.929Z" style="fill:rgb(242,242,242);fill-opacity:0.372549;"/>
        </g>
        <g transform="matrix(0.770284,0,0,0.770284,177.566,108.161)">
            <path d="M518.387,152.929L518.741,158.435L521.523,155.208L519.314,158.851L524.659,157.487L519.533,159.525L523.461,161.174L519.314,160.199L522.263,164.861L518.741,160.615L518.387,164.861L518.032,160.615L514.51,164.861L517.459,160.199L513.312,161.174L517.24,159.525L512.114,157.487L517.459,158.851L515.25,155.208L518.032,158.435L518.387,152.929Z" style="fill:rgb(242,242,242);fill-opacity:0.372549;"/>
        </g>
        <g transform="matrix(-0.307741,0.70614,-0.70614,-0.307741,1164.27,-106.021)">
            <path d="M518.387,152.929L518.741,158.435L521.523,155.208L519.314,158.851L524.659,157.487L519.533,159.525L523.461,161.174L519.314,160.199L522.263,164.861L518.741,160.615L518.387,164.861L518.032,160.615L514.51,164.861L517.459,160.199L513.312,161.174L517.24,159.525L512.114,157.487L517.459,158.851L515.25,155.208L518.032,158.435L518.387,152.929Z" style="fill:rgb(242,242,242);fill-opacity:0.372549;"/>
        </g>
        <g transform="matrix(0.576552,0.510809,-0.510809,0.576552,684.192,-234.921)">
            <path d="M518.387,152.929L518.741,158.435L521.523,155.208L519.314,158.851L524.659,157.487L519.533,159.525L523.461,161.174L519.314,160.199L522.263,164.861L518.741,160.615L518.387,164.861L518.032,160.615L514.51,164.861L517.459,160.199L513.312,161.174L517.24,159.525L512.114,157.487L517.459,158.851L515.25,155.208L518.032,158.435L518.387,152.929Z" style="fill:rgb(242,242,242);fill-opacity:0.372549;"/>
        </g>
        <g transform="matrix(0.576552,0.510809,-0.510809,0.576552,724.582,-326.16)">
            <path d="M518.387,152.929L518.741,158.435L521.523,155.208L519.314,158.851L524.659,157.487L519.533,159.525L523.461,161.174L519.314,160.199L522.263,164.861L518.741,160.615L518.387,164.861L518.032,160.615L514.51,164.861L517.459,160.199L513.312,161.174L517.24,159.525L512.114,157.487L517.459,158.851L515.25,155.208L518.032,158.435L518.387,152.929Z" style="fill:rgb(242,242,242);fill-opacity:0.372549;"/>
        </g>
        <g transform="matrix(0.576552,0.510809,-0.510809,0.576552,189.77,-340.343)">
            <path d="M518.387,152.929L518.741,158.435L521.523,155.208L519.314,158.851L524.659,157.487L519.533,159.525L523.461,161.174L519.314,160.199L522.263,164.861L518.741,160.615L518.387,164.861L518.032,160.615L514.51,164.861L517.459,160.199L513.312,161.174L517.24,159.525L512.114,157.487L517.459,158.851L515.25,155.208L518.032,158.435L518.387,152.929Z" style="fill:rgb(242,242,242);fill-opacity:0.372549;"/>
        </g>
        <g transform="matrix(-0.307741,0.70614,-0.70614,-0.307741,1444.27,-66.0213)">
            <path d="M518.387,152.929L518.741,158.435L521.523,155.208L519.314,158.851L524.659,157.487L519.533,159.525L523.461,161.174L519.314,160.199L522.263,164.861L518.741,160.615L518.387,164.861L518.032,160.615L514.51,164.861L517.459,160.199L513.312,161.174L517.24,159.525L512.114,157.487L517.459,158.851L515.25,155.208L518.032,158.435L518.387,152.929Z" style="fill:rgb(242,242,242);fill-opacity:0.372549;"/>
        </g>
        <g transform="matrix(-0.611148,0.468867,-0.468867,-0.611148,1449.56,-33.856)">
            <path d="M518.387,152.929L518.741,158.435L521.523,155.208L519.314,158.851L524.659,157.487L519.533,159.525L523.461,161.174L519.314,160.199L522.263,164.861L518.741,160.615L518.387,164.861L518.032,160.615L514.51,164.861L517.459,160.199L513.312,161.174L517.24,159.525L512.114,157.487L517.459,158.851L515.25,155.208L518.032,158.435L518.387,152.929Z" style="fill:rgb(242,242,242);fill-opacity:0.372549;"/>
        </g>
        <g transform="matrix(-0.761747,0.114362,-0.114362,-0.761747,1634.25,187.412)">
            <path d="M518.387,152.929L518.741,158.435L521.523,155.208L519.314,158.851L524.659,157.487L519.533,159.525L523.461,161.174L519.314,160.199L522.263,164.861L518.741,160.615L518.387,164.861L518.032,160.615L514.51,164.861L517.459,160.199L513.312,161.174L517.24,159.525L512.114,157.487L517.459,158.851L515.25,155.208L518.032,158.435L518.387,152.929Z" style="fill:rgb(242,242,242);fill-opacity:0.372549;"/>
        </g>
        <g transform="matrix(0.580249,-0.506605,0.506605,0.580249,-45.6717,350.269)">
            <path d="M518.387,152.929L518.741,158.435L521.523,155.208L519.314,158.851L524.659,157.487L519.533,159.525L523.461,161.174L519.314,160.199L522.263,164.861L518.741,160.615L518.387,164.861L518.032,160.615L514.51,164.861L517.459,160.199L513.312,161.174L517.24,159.525L512.114,157.487L517.459,158.851L515.25,155.208L518.032,158.435L518.387,152.929Z" style="fill:rgb(242,242,242);fill-opacity:0.372549;"/>
        </g>
        <g transform="matrix(0.770284,0,0,0.770284,191.064,-26.6637)">
            <path d="M518.387,152.929L518.741,158.435L521.523,155.208L519.314,158.851L524.659,157.487L519.533,159.525L523.461,161.174L519.314,160.199L522.263,164.861L518.741,160.615L518.387,164.861L518.032,160.615L514.51,164.861L517.459,160.199L513.312,161.174L517.24,159.525L512.114,157.487L517.459,158.851L515.25,155.208L518.032,158.435L518.387,152.929Z" style="fill:rgb(242,242,242);fill-opacity:0.372549;"/>
        </g>
        <g transform="matrix(0.770284,0,0,0.770284,-205.572,-35.8545)">
            <path d="M518.387,152.929L518.741,158.435L521.523,155.208L519.314,158.851L524.659,157.487L519.533,159.525L523.461,161.174L519.314,160.199L522.263,164.861L518.741,160.615L518.387,164.861L518.032,160.615L514.51,164.861L517.459,160.199L513.312,161.174L517.24,159.525L512.114,157.487L517.459,158.851L515.25,155.208L518.032,158.435L518.387,152.929Z" style="fill:rgb(242,242,242);fill-opacity:0.372549;"/>
        </g>
        <g transform="matrix(1.15216,0,0,1.15216,-541.013,-49.292)">
            <path d="M518.387,152.929L518.741,158.435L521.523,155.208L519.314,158.851L524.659,157.487L519.533,159.525L523.461,161.174L519.314,160.199L522.263,164.861L518.741,160.615L518.387,164.861L518.032,160.615L514.51,164.861L517.459,160.199L513.312,161.174L517.24,159.525L512.114,157.487L517.459,158.851L515.25,155.208L518.032,158.435L518.387,152.929Z" style="fill:rgb(242,242,242);fill-opacity:0.372549;"/>
        </g>
        <g transform="matrix(0.859404,0.390182,-0.390182,0.859404,-248.012,-62.9057)">
            <path d="M518.387,152.929L518.741,158.435L521.523,155.208L519.314,158.851L524.659,157.487L519.533,159.525L523.461,161.174L519.314,160.199L522.263,164.861L518.741,160.615L518.387,164.861L518.032,160.615L514.51,164.861L517.459,160.199L513.312,161.174L517.24,159.525L512.114,157.487L517.459,158.851L515.25,155.208L518.032,158.435L518.387,152.929Z" style="fill:rgb(242,242,242);fill-opacity:0.372549;"/>
        </g>
        <g transform="matrix(0.770284,0,0,0.770284,377.166,39.108)">
            <path d="M518.387,152.929L518.741,158.435L521.523,155.208L519.314,158.851L524.659,157.487L519.533,159.525L523.461,161.174L519.314,160.199L522.263,164.861L518.741,160.615L518.387,164.861L518.032,160.615L514.51,164.861L517.459,160.199L513.312,161.174L517.24,159.525L512.114,157.487L517.459,158.851L515.25,155.208L518.032,158.435L518.387,152.929Z" style="fill:rgb(242,242,242);fill-opacity:0.372549;"/>
        </g>
        <g transform="matrix(0.770284,0,0,0.770284,347.166,-40.892)">
            <path d="M518.387,152.929L518.741,158.435L521.523,155.208L519.314,158.851L524.659,157.487L519.533,159.525L523.461,161.174L519.314,160.199L522.263,164.861L518.741,160.615L518.387,164.861L518.032,160.615L514.51,164.861L517.459,160.199L513.312,161.174L517.24,159.525L512.114,157.487L517.459,158.851L515.25,155.208L518.032,158.435L518.387,152.929Z" style="fill:rgb(242,242,242);fill-opacity:0.372549;"/>
        </g>
    </g>
    <g id="Layer15" serif:id="Layer1" transform="matrix(0.605816,-0.213611,0.279878,0.793755,646.373,400.457)">
        <g transform="matrix(-0.307741,0.70614,-0.70614,-0.307741,1164.27,-106.021)">
            <path d="M518.387,152.929L518.741,158.435L521.523,155.208L519.314,158.851L524.659,157.487L519.533,159.525L523.461,161.174L519.314,160.199L522.263,164.861L518.741,160.615L518.387,164.861L518.032,160.615L514.51,164.861L517.459,160.199L513.312,161.174L517.24,159.525L512.114,157.487L517.459,158.851L515.25,155.208L518.032,158.435L518.387,152.929Z" style="fill:rgb(242,242,242);fill-opacity:0.498039;"/>
        </g>
        <g transform="matrix(0.576552,0.510809,-0.510809,0.576552,684.192,-234.921)">
            <path d="M518.387,152.929L518.741,158.435L521.523,155.208L519.314,158.851L524.659,157.487L519.533,159.525L523.461,161.174L519.314,160.199L522.263,164.861L518.741,160.615L518.387,164.861L518.032,160.615L514.51,164.861L517.459,160.199L513.312,161.174L517.24,159.525L512.114,157.487L517.459,158.851L515.25,155.208L518.032,158.435L518.387,152.929Z" style="fill:rgb(242,242,242);fill-opacity:0.498039;"/>
        </g>
        <g transform="matrix(0.576552,0.510809,-0.510809,0.576552,724.582,-326.16)">
            <path d="M518.387,152.929L518.741,158.435L521.523,155.208L519.314,158.851L524.659,157.487L519.533,159.525L523.461,161.174L519.314,160.199L522.263,164.861L518.741,160.615L518.387,164.861L518.032,160.615L514.51,164.861L517.459,160.199L513.312,161.174L517.24,159.525L512.114,157.487L517.459,158.851L515.25,155.208L518.032,158.435L518.387,152.929Z" style="fill:rgb(242,242,242);fill-opacity:0.498039;"/>
        </g>
        <g transform="matrix(0.576552,0.510809,-0.510809,0.576552,189.77,-340.343)">
            <path d="M518.387,152.929L518.741,158.435L521.523,155.208L519.314,158.851L524.659,157.487L519.533,159.525L523.461,161.174L519.314,160.199L522.263,164.861L518.741,160.615L518.387,164.861L518.032,160.615L514.51,164.861L517.459,160.199L513.312,161.174L517.24,159.525L512.114,157.487L517.459,158.851L515.25,155.208L518.032,158.435L518.387,152.929Z" style="fill:rgb(242,242,242);fill-opacity:0.498039;"/>
        </g>
        <g transform="matrix(0.770284,0,0,0.770284,191.064,-26.6637)">
            <path d="M518.387,152.929L518.741,158.435L521.523,155.208L519.314,158.851L524.659,157.487L519.533,159.525L523.461,161.174L519.314,160.199L522.263,164.861L518.741,160.615L518.387,164.861L518.032,160.615L514.51,164.861L517.459,160.199L513.312,161.174L517.24,159.525L512.114,157.487L517.459,158.851L515.25,155.208L518.032,158.435L518.387,152.929Z" style="fill:rgb(242,242,242);fill-opacity:0.498039;"/>
        </g>
        <g transform="matrix(0.770284,0,0,0.770284,377.166,39.108)">
            <path d="M518.387,152.929L518.741,158.435L521.523,155.208L519.314,158.851L524.659,157.487L519.533,159.525L523.461,161.174L519.314,160.199L522.263,164.861L518.741,160.615L518.387,164.861L518.032,160.615L514.51,164.861L517.459,160.199L513.312,161.174L517.24,159.525L512.114,157.487L517.459,158.851L515.25,155.208L518.032,158.435L518.387,152.929Z" style="fill:rgb(242,242,242);fill-opacity:0.498039;"/>
        </g>
        <g transform="matrix(0.770284,0,0,0.770284,347.166,-40.892)">
            <path d="M518.387,152.929L518.741,158.435L521.523,155.208L519.314,158.851L524.659,157.487L519.533,159.525L523.461,161.174L519.314,160.199L522.263,164.861L518.741,160.615L518.387,164.861L518.032,160.615L514.51,164.861L517.459,160.199L513.312,161.174L517.24,159.525L512.114,157.487L517.459,158.851L515.25,155.208L518.032,158.435L518.387,152.929Z" style="fill:rgb(242,242,242);fill-opacity:0.498039;"/>
        </g>
    </g>
    <g id="Layer16" serif:id="Layer1" transform="matrix(0.792497,-0.263799,0.345636,1.03835,590.416,1.08852)">
        <g transform="matrix(0.770284,0,0,0.770284,117.566,38.1605)">
            <path d="M518.387,152.929L518.741,158.435L521.523,155.208L519.314,158.851L524.659,157.487L519.533,159.525L523.461,161.174L519.314,160.199L522.263,164.861L518.741,160.615L518.387,164.861L518.032,160.615L514.51,164.861L517.459,160.199L513.312,161.174L517.24,159.525L512.114,157.487L517.459,158.851L515.25,155.208L518.032,158.435L518.387,152.929Z" style="fill:rgb(242,242,242);fill-opacity:0.568627;"/>
        </g>
        <g transform="matrix(0.770284,0,0,0.770284,177.566,108.161)">
            <path d="M518.387,152.929L518.741,158.435L521.523,155.208L519.314,158.851L524.659,157.487L519.533,159.525L523.461,161.174L519.314,160.199L522.263,164.861L518.741,160.615L518.387,164.861L518.032,160.615L514.51,164.861L517.459,160.199L513.312,161.174L517.24,159.525L512.114,157.487L517.459,158.851L515.25,155.208L518.032,158.435L518.387,152.929Z" style="fill:rgb(242,242,242);fill-opacity:0.568627;"/>
        </g>
        <g transform="matrix(0.7063,0.307372,-0.307372,0.7063,399.768,9.02987)">
            <path d="M518.387,152.929L518.741,158.435L521.523,155.208L519.314,158.851L524.659,157.487L519.533,159.525L523.461,161.174L519.314,160.199L522.263,164.861L518.741,160.615L518.387,164.861L518.032,160.615L514.51,164.861L517.459,160.199L513.312,161.174L517.24,159.525L512.114,157.487L517.459,158.851L515.25,155.208L518.032,158.435L518.387,152.929Z" style="fill:rgb(242,242,242);fill-opacity:0.568627;"/>
        </g>
        <g transform="matrix(0.580249,-0.506605,0.506605,0.580249,-45.6717,350.269)">
            <path d="M518.387,152.929L518.741,158.435L521.523,155.208L519.314,158.851L524.659,157.487L519.533,159.525L523.461,161.174L519.314,160.199L522.263,164.861L518.741,160.615L518.387,164.861L518.032,160.615L514.51,164.861L517.459,160.199L513.312,161.174L517.24,159.525L512.114,157.487L517.459,158.851L515.25,155.208L518.032,158.435L518.387,152.929Z" style="fill:rgb(242,242,242);fill-opacity:0.568627;"/>
        </g>
        <g transform="matrix(0.262034,-0.724345,0.724345,0.262034,174.552,653.906)">
            <path d="M518.387,152.929L518.741,158.435L521.523,155.208L519.314,158.851L524.659,157.487L519.533,159.525L523.461,161.174L519.314,160.199L522.263,164.861L518.741,160.615L518.387,164.861L518.032,160.615L514.51,164.861L517.459,160.199L513.312,161.174L517.24,159.525L512.114,157.487L517.459,158.851L515.25,155.208L518.032,158.435L518.387,152.929Z" style="fill:rgb(242,242,242);fill-opacity:0.568627;"/>
        </g>
        <g transform="matrix(0.770284,0,0,0.770284,-205.572,-35.8545)">
            <path d="M518.387,152.929L518.741,158.435L521.523,155.208L519.314,158.851L524.659,157.487L519.533,159.525L523.461,161.174L519.314,160.199L522.263,164.861L518.741,160.615L518.387,164.861L518.032,160.615L514.51,164.861L517.459,160.199L513.312,161.174L517.24,159.525L512.114,157.487L517.459,158.851L515.25,155.208L518.032,158.435L518.387,152.929Z" style="fill:rgb(242,242,242);fill-opacity:0.568627;"/>
        </g>
        <g transform="matrix(1.15216,0,0,1.15216,-541.013,-49.292)">
            <path d="M518.387,152.929L518.741,158.435L521.523,155.208L519.314,158.851L524.659,157.487L519.533,159.525L523.461,161.174L519.314,160.199L522.263,164.861L518.741,160.615L518.387,164.861L518.032,160.615L514.51,164.861L517.459,160.199L513.312,161.174L517.24,159.525L512.114,157.487L517.459,158.851L515.25,155.208L518.032,158.435L518.387,152.929Z" style="fill:rgb(242,242,242);fill-opacity:0.568627;"/>
        </g>
        <g transform="matrix(0.859404,0.390182,-0.390182,0.859404,-248.012,-62.9057)">
            <path d="M518.387,152.929L518.741,158.435L521.523,155.208L519.314,158.851L524.659,157.487L519.533,159.525L523.461,161.174L519.314,160.199L522.263,164.861L518.741,160.615L518.387,164.861L518.032,160.615L514.51,164.861L517.459,160.199L513.312,161.174L517.24,159.525L512.114,157.487L517.459,158.851L515.25,155.208L518.032,158.435L518.387,152.929Z" style="fill:rgb(242,242,242);fill-opacity:0.568627;"/>
        </g>
        <g transform="matrix(0.859404,0.390182,-0.390182,0.859404,-142.168,33.8079)">
            <path d="M518.387,152.929L518.741,158.435L521.523,155.208L519.314,158.851L524.659,157.487L519.533,159.525L523.461,161.174L519.314,160.199L522.263,164.861L518.741,160.615L518.387,164.861L518.032,160.615L514.51,164.861L517.459,160.199L513.312,161.174L517.24,159.525L512.114,157.487L517.459,158.851L515.25,155.208L518.032,158.435L518.387,152.929Z" style="fill:rgb(242,242,242);fill-opacity:0.568627;"/>
        </g>
    </g>
    <g id="Layer17" serif:id="Layer1" transform="matrix(0.545558,0.632461,-0.828666,0.714803,841.238,-147.026)">
        <g transform="matrix(0.770284,0,0,0.770284,117.566,38.1605)">
            <path d="M518.387,152.929L518.741,158.435L521.523,155.208L519.314,158.851L524.659,157.487L519.533,159.525L523.461,161.174L519.314,160.199L522.263,164.861L518.741,160.615L518.387,164.861L518.032,160.615L514.51,164.861L517.459,160.199L513.312,161.174L517.24,159.525L512.114,157.487L517.459,158.851L515.25,155.208L518.032,158.435L518.387,152.929Z" style="fill:rgb(242,242,242);fill-opacity:0.313726;"/>
        </g>
        <g transform="matrix(0.770284,0,0,0.770284,177.566,108.161)">
            <path d="M518.387,152.929L518.741,158.435L521.523,155.208L519.314,158.851L524.659,157.487L519.533,159.525L523.461,161.174L519.314,160.199L522.263,164.861L518.741,160.615L518.387,164.861L518.032,160.615L514.51,164.861L517.459,160.199L513.312,161.174L517.24,159.525L512.114,157.487L517.459,158.851L515.25,155.208L518.032,158.435L518.387,152.929Z" style="fill:rgb(242,242,242);fill-opacity:0.313726;"/>
        </g>
        <g transform="matrix(0.576552,0.510809,-0.510809,0.576552,189.77,-340.343)">
            <path d="M518.387,152.929L518.741,158.435L521.523,155.208L519.314,158.851L524.659,157.487L519.533,159.525L523.461,161.174L519.314,160.199L522.263,164.861L518.741,160.615L518.387,164.861L518.032,160.615L514.51,164.861L517.459,160.199L513.312,161.174L517.24,159.525L512.114,157.487L517.459,158.851L515.25,155.208L518.032,158.435L518.387,152.929Z" style="fill:rgb(242,242,242);fill-opacity:0.313726;"/>
        </g>
        <g transform="matrix(0.580249,-0.506605,0.506605,0.580249,-45.6717,350.269)">
            <path d="M518.387,152.929L518.741,158.435L521.523,155.208L519.314,158.851L524.659,157.487L519.533,159.525L523.461,161.174L519.314,160.199L522.263,164.861L518.741,160.615L518.387,164.861L518.032,160.615L514.51,164.861L517.459,160.199L513.312,161.174L517.24,159.525L512.114,157.487L517.459,158.851L515.25,155.208L518.032,158.435L518.387,152.929Z" style="fill:rgb(242,242,242);fill-opacity:0.313726;"/>
        </g>
        <g transform="matrix(0.262034,-0.724345,0.724345,0.262034,174.552,653.906)">
            <path d="M518.387,152.929L518.741,158.435L521.523,155.208L519.314,158.851L524.659,157.487L519.533,159.525L523.461,161.174L519.314,160.199L522.263,164.861L518.741,160.615L518.387,164.861L518.032,160.615L514.51,164.861L517.459,160.199L513.312,161.174L517.24,159.525L512.114,157.487L517.459,158.851L515.25,155.208L518.032,158.435L518.387,152.929Z" style="fill:rgb(242,242,242);fill-opacity:0.313726;"/>
        </g>
        <g transform="matrix(0.770284,0,0,0.770284,191.064,-26.6637)">
            <path d="M518.387,152.929L518.741,158.435L521.523,155.208L519.314,158.851L524.659,157.487L519.533,159.525L523.461,161.174L519.314,160.199L522.263,164.861L518.741,160.615L518.387,164.861L518.032,160.615L514.51,164.861L517.459,160.199L513.312,161.174L517.24,159.525L512.114,157.487L517.459,158.851L515.25,155.208L518.032,158.435L518.387,152.929Z" style="fill:rgb(242,242,242);fill-opacity:0.313726;"/>
        </g>
        <g transform="matrix(0.770284,0,0,0.770284,-205.572,-35.8545)">
            <path d="M518.387,152.929L518.741,158.435L521.523,155.208L519.314,158.851L524.659,157.487L519.533,159.525L523.461,161.174L519.314,160.199L522.263,164.861L518.741,160.615L518.387,164.861L518.032,160.615L514.51,164.861L517.459,160.199L513.312,161.174L517.24,159.525L512.114,157.487L517.459,158.851L515.25,155.208L518.032,158.435L518.387,152.929Z" style="fill:rgb(242,242,242);fill-opacity:0.313726;"/>
        </g>
        <g transform="matrix(0.859404,0.390182,-0.390182,0.859404,-248.012,-62.9057)">
            <path d="M518.387,152.929L518.741,158.435L521.523,155.208L519.314,158.851L524.659,157.487L519.533,159.525L523.461,161.174L519.314,160.199L522.263,164.861L518.741,160.615L518.387,164.861L518.032,160.615L514.51,164.861L517.459,160.199L513.312,161.174L517.24,159.525L512.114,157.487L517.459,158.851L515.25,155.208L518.032,158.435L518.387,152.929Z" style="fill:rgb(242,242,242);fill-opacity:0.313726;"/>
        </g>
        <g transform="matrix(0.859404,0.390182,-0.390182,0.859404,-142.168,33.8079)">
            <path d="M518.387,152.929L518.741,158.435L521.523,155.208L519.314,158.851L524.659,157.487L519.533,159.525L523.461,161.174L519.314,160.199L522.263,164.861L518.741,160.615L518.387,164.861L518.032,160.615L514.51,164.861L517.459,160.199L513.312,161.174L517.24,159.525L512.114,157.487L517.459,158.851L515.25,155.208L518.032,158.435L518.387,152.929Z" style="fill:rgb(242,242,242);fill-opacity:0.313726;"/>
        </g>
        <g transform="matrix(0.770284,0,0,0.770284,347.166,-40.892)">
            <path d="M518.387,152.929L518.741,158.435L521.523,155.208L519.314,158.851L524.659,157.487L519.533,159.525L523.461,161.174L519.314,160.199L522.263,164.861L518.741,160.615L518.387,164.861L518.032,160.615L514.51,164.861L517.459,160.199L513.312,161.174L517.24,159.525L512.114,157.487L517.459,158.851L515.25,155.208L518.032,158.435L518.387,152.929Z" style="fill:rgb(242,242,242);fill-opacity:0.313726;"/>
        </g>
    </g>
</svg>
